<svg xmlns="http://www.w3.org/2000/svg" viewBox="0 0 370 370"><svg xmlns="http://www.w3.org/2000/svg" xmlns:svg="http://www.w3.org/2000/svg" xml:space="preserve" viewBox="0 0 97.9 97.9"><g stroke-width="0" transform="translate(-66.2 -54.3)"><rect width="22.8" height="22.8" x="73.4" y="79.9" fill="#db3786" ry="3"/><path fill="#6455bb" d="M100.6 104a3 3 0 0 0-2.1 1l-24.2 24a3 3 0 0 0-.9 2.2V148a3 3 0 0 0 3 3h5.2a3 3 0 0 0 2-.8l.1-.1 23.7-23.1a3 3 0 0 0 .9-2.1v-18a3 3 0 0 0-3-3z"/><rect width="22.8" height="22.8" x="109.9" y="79.6" fill="#24a1e9" ry="3"/><rect width="22.8" height="22.8" x="109.9" y="128" fill="#914aa1" ry="3"/><rect width="22.8" height="22.8" x="134.1" y="55.4" fill="#00b2c9" ry="3"/><rect width="22.8" height="22.8" x="134.1" y="103.8" fill="#ff7b6e" ry="3"/></g></svg></svg>