<svg viewBox="-4 0 64 64" xmlns="http://www.w3.org/2000/svg"><path d="M5.14 0A5.07 5.07 0 0 0 .05 5.09v53.84c0 2.8 2.27 5.08 5.08 5.08H50.9c2.8 0 5.07-2.27 5.07-5.08v-38.6L37.08 0z" fill-rule="evenodd" clip-rule="evenodd" fill="#F7622C"/><g fill-rule="evenodd" clip-rule="evenodd"><path d="M55.98 20.35v1h-12.8s-6.31-1.26-6.13-6.7c0 0 .2 5.7 6 5.7z" fill="#F54921"/><path d="M37.07 0v14.56c0 1.66 1.1 5.8 6.1 5.8h12.8z" opacity=".5" fill="#fff"/></g><path d="M18.94 50.84a1 1 0 0 1-.33-.06l-7.58-3.38a1.38 1.38 0 0 1 0-2.5l7.58-3.4q.14-.06.33-.06a.9.9 0 0 1 .88.9.9.9 0 0 1-.52.82l-7.03 3 7.03 2.98c.34.15.52.46.52.82 0 .54-.46.88-.88.88m8.47-11.04-4.43 13.29c-.13.4-.5.63-.9.63a.9.9 0 0 1-.93-.88q0-.15.06-.3l4.43-13.29a.9.9 0 0 1 .9-.63c.53 0 .9.42.9.9zm10.18 7.6-7.58 3.38a.9.9 0 0 1-1.22-.82c0-.36.2-.67.53-.82l7.03-2.98-7.03-3a.9.9 0 0 1-.55-.82c-.02-.55.44-.9.9-.9q.16 0 .34.06l7.58 3.4a1.38 1.38 0 0 1 0 2.5" fill="#fff"/></svg>