<svg viewBox="0 0 48 48" xmlns="http://www.w3.org/2000/svg"><defs><linearGradient gradientUnits="userSpaceOnUse" id="prefix__linear-gradient" x1="24" x2="24" y1="17.9" y2="37.2"><stop offset="0" stop-color="#fbd855"/><stop offset="1" stop-color="#f6d352"/></linearGradient><style>.prefix__cls-1{fill:#ffe996}</style></defs><g id="prefix__icons"><g data-name="Layer 3" id="prefix__Layer_3"><path class="prefix__cls-1" d="M39 11H23a5 5 0 0 0-5-5H9a5 5 0 0 0-5 5v19a5 5 0 0 0 5 5h30a5 5 0 0 0 5-5V16a5 5 0 0 0-5-5"/><path d="M39 13H23a5 5 0 0 0-5-5H9a5 5 0 0 0-5 5v19a5 5 0 0 0 5 5h30a5 5 0 0 0 5-5V18a5 5 0 0 0-5-5" fill="#e09d20"/><rect class="prefix__cls-1" height="25" rx="5" ry="5" width="40" x="4" y="17"/><rect height="23" rx="5" ry="5" width="40" x="4" y="19" fill="url(#prefix__linear-gradient)"/></g></g></svg>